<mxfile host="app.diagrams.net" agent="Mozilla/5.0 (Windows NT 10.0; Win64; x64) AppleWebKit/537.36 (KHTML, like Gecko) Chrome/131.0.0.0 Safari/537.36 Edg/131.0.0.0" version="25.0.3">
  <diagram name="第 1 页" id="YP7mhyy6ZPuCcGBnqBpe">
    <mxGraphModel>
      <root>
        <mxCell id="0" />
        <mxCell id="1" parent="0" />
        <mxCell id="2" value="User" style="shape=umlLifeline;perimeter=lifelinePerimeter;whiteSpace=wrap;container=1;dropTarget=0;collapsible=0;recursiveResize=0;outlineConnect=0;portConstraint=eastwest;newEdgeStyle={&quot;edgeStyle&quot;:&quot;elbowEdgeStyle&quot;,&quot;elbow&quot;:&quot;vertical&quot;,&quot;curved&quot;:0,&quot;rounded&quot;:0};size=65;" vertex="1" parent="1">
          <mxGeometry width="150" height="466" as="geometry" />
        </mxCell>
        <mxCell id="3" value="System" style="shape=umlLifeline;perimeter=lifelinePerimeter;whiteSpace=wrap;container=1;dropTarget=0;collapsible=0;recursiveResize=0;outlineConnect=0;portConstraint=eastwest;newEdgeStyle={&quot;edgeStyle&quot;:&quot;elbowEdgeStyle&quot;,&quot;elbow&quot;:&quot;vertical&quot;,&quot;curved&quot;:0,&quot;rounded&quot;:0};size=65;" vertex="1" parent="1">
          <mxGeometry x="200" width="150" height="466" as="geometry" />
        </mxCell>
        <mxCell id="4" value="Database" style="shape=umlLifeline;perimeter=lifelinePerimeter;whiteSpace=wrap;container=1;dropTarget=0;collapsible=0;recursiveResize=0;outlineConnect=0;portConstraint=eastwest;newEdgeStyle={&quot;edgeStyle&quot;:&quot;elbowEdgeStyle&quot;,&quot;elbow&quot;:&quot;vertical&quot;,&quot;curved&quot;:0,&quot;rounded&quot;:0};size=65;" vertex="1" parent="1">
          <mxGeometry x="400" width="150" height="466" as="geometry" />
        </mxCell>
        <mxCell id="5" value="Make a request" style="verticalAlign=bottom;edgeStyle=elbowEdgeStyle;elbow=vertical;curved=0;rounded=0;endArrow=block;" edge="1" parent="1" source="2" target="3">
          <mxGeometry relative="1" as="geometry">
            <Array as="points">
              <mxPoint x="184" y="107" />
            </Array>
          </mxGeometry>
        </mxCell>
        <mxCell id="6" value="Query data" style="verticalAlign=bottom;edgeStyle=elbowEdgeStyle;elbow=vertical;curved=0;rounded=0;endArrow=block;" edge="1" parent="1" source="3" target="4">
          <mxGeometry relative="1" as="geometry">
            <Array as="points">
              <mxPoint x="384" y="159" />
            </Array>
          </mxGeometry>
        </mxCell>
        <mxCell id="7" value="Return data" style="verticalAlign=bottom;edgeStyle=elbowEdgeStyle;elbow=vertical;curved=0;rounded=0;dashed=1;dashPattern=2 3;endArrow=block;" edge="1" parent="1" source="4" target="3">
          <mxGeometry relative="1" as="geometry">
            <Array as="points">
              <mxPoint x="387" y="211" />
            </Array>
          </mxGeometry>
        </mxCell>
        <mxCell id="8" value="Send response" style="verticalAlign=bottom;edgeStyle=elbowEdgeStyle;elbow=vertical;curved=0;rounded=0;dashed=1;dashPattern=2 3;endArrow=block;" edge="1" parent="1" source="3" target="2">
          <mxGeometry relative="1" as="geometry">
            <Array as="points">
              <mxPoint x="187" y="263" />
            </Array>
          </mxGeometry>
        </mxCell>
        <mxCell id="9" value="Process request" style="fillColor=#ffff88;strokeColor=#9E916F;" vertex="1" parent="1">
          <mxGeometry x="50" y="283" width="250" height="49" as="geometry" />
        </mxCell>
        <mxCell id="10" value="Process data" style="fillColor=#ffff88;strokeColor=#9E916F;" vertex="1" parent="1">
          <mxGeometry x="250" y="332" width="250" height="49" as="geometry" />
        </mxCell>
      </root>
    </mxGraphModel>
  </diagram>
</mxfile>
